<svg xmlns="http://www.w3.org/2000/svg" width="193" height="147" viewBox="0 0 193 147"><g fill="none" fill-rule="evenodd" transform="translate(0 -3)"><text fill="#000" font-family="OpenSans-Bold, Open Sans" font-size="10" font-weight="bold"><tspan x="13.6" y="11">1</tspan></text><text fill="#000" font-family="OpenSans-Bold, Open Sans" font-size="10" font-weight="bold"><tspan x=".85" y="25.42">1</tspan></text><text fill="#000" font-family="OpenSans-Bold, Open Sans" font-size="10" font-weight="bold"><tspan x="70.57" y="11">2</tspan></text><text fill="#000" font-family="OpenSans-Bold, Open Sans" font-size="10" font-weight="bold"><tspan x="128.38" y="11">3</tspan></text><text fill="#000" font-family="OpenSans-Bold, Open Sans" font-size="10" font-weight="bold"><tspan x="184.5" y="11">4</tspan></text><text fill="#000" font-family="OpenSans-Bold, Open Sans" font-size="10" font-weight="bold"><tspan x="0" y="81.41">2</tspan></text><text fill="#000" font-family="OpenSans-Bold, Open Sans" font-size="10" font-weight="bold"><tspan x=".85" y="138.24">3</tspan></text><rect width="47.01" height="45.01" x="21.56" y="26.6" stroke="#306FFD" stroke-width="4" rx="2"/><rect width="47.01" height="45.01" x="78.2" y="26.6" stroke="#306FFD" stroke-width="4" rx="2"/><rect width="47.01" height="45.01" x="134.85" y="26.6" stroke="#306FFD" stroke-width="4" rx="2"/><rect width="47.01" height="45.01" x="21.56" y="82.59" stroke="#306FFD" stroke-width="4" rx="2"/><rect width="47.01" height="45.01" x="78.2" y="82.59" stroke="#306FFD" stroke-width="4" rx="2"/><rect width="47.01" height="45.01" x="134.85" y="82.59" stroke="#306FFD" stroke-width="4" rx="2"/><path stroke="#FF9400" stroke-linecap="square" stroke-width="2" d="M73.119 15.693v123m56.965-123v123m-113.93-123v123m170.894-123v123m-176.42-61.5H192.44M10.628 133.179H192.44M10.628 21.207H192.44" opacity=".6"/></g></svg>