<svg xmlns="http://www.w3.org/2000/svg" viewBox="0 0 40.438 37.156"><path id="zigzag" style="fill:none;stroke:#f69679;stroke-width:1px;fill-rule:evenodd;" d="M3.286,9.857L9.857,3.286l3.286,3.286,3.286-3.286,3.286,3.286L23,3.286l3.286,3.286,3.286-3.286,3.286,3.286,3.286-3.286,6.571,6.571-3.286,3.286,3.286,3.286-3.286,3.286L42.714,23l-3.286,3.286,3.286,3.286-3.286,3.286,3.286,6.572H36.143l-6.571-3.286H16.429L9.857,39.429H3.286l3.286-6.571L3.286,29.571l3.286-3.286L3.286,23l3.286-3.286L3.286,16.429l3.286-3.286Z" transform="translate(-2.781 -2.781)"/></svg>
